<svg version="1.1" id="Layer_1" xmlns="http://www.w3.org/2000/svg" xmlns:xlink="http://www.w3.org/1999/xlink" x="0px" y="0px"
	 width="100%" viewBox="0 0 1291 726" enable-background="new 0 0 1291 726" xml:space="preserve">
<path fill="#FFFFFF" opacity="1.000000" stroke="none" 
	d="
M1292.000000,597.000000 
	C1292.000000,640.321472 1292.000000,683.642883 1292.000000,726.944824 
	C861.666687,726.944824 431.333344,726.944824 1.000000,726.944824 
	C1.000000,683.901550 1.000000,640.913391 1.468657,597.462646 
	C142.945999,597.000000 283.954681,597.000549 424.963379,596.994263 
	C426.958130,596.994141 428.952911,596.907593 431.297852,596.913086 
	C432.118256,596.931580 432.588470,596.898315 433.519531,596.927734 
	C489.145386,596.993591 544.310364,597.005920 599.475281,596.993103 
	C611.971375,596.990234 624.467468,596.899902 637.230225,596.898193 
	C637.674438,596.913330 637.852051,596.880127 638.493896,596.917969 
	C692.831848,596.992676 746.705566,597.006409 800.579285,596.993164 
	C814.709534,596.989685 828.839783,596.902649 843.234985,596.894470 
	C843.676453,596.907837 843.853027,596.880615 844.492065,596.921570 
	C993.969666,596.993164 1142.984863,596.996582 1292.000000,597.000000 
z"/>
<path fill="#FFFFFF" opacity="1.000000" stroke="none" 
	d="
M1292.000000,279.000000 
	C1292.000000,321.687561 1292.000000,364.375122 1291.531372,407.531372 
	C1206.542236,408.000031 1122.021606,407.999084 1037.501099,408.006348 
	C1035.674561,408.006500 1033.847900,408.101044 1031.558594,408.091614 
	C995.387756,408.070190 959.679749,408.108734 923.506287,408.078918 
	C890.699585,408.059875 858.358398,408.109192 825.551514,408.093262 
	C789.770874,408.077942 754.455933,408.127869 718.662964,408.110657 
	C697.117554,408.080505 676.050171,408.117462 654.520081,408.082703 
	C643.051025,408.055725 632.044678,408.100464 620.571167,408.087952 
	C584.655518,408.077271 549.206970,408.123871 513.312439,408.110107 
	C491.570007,408.085144 470.273621,408.120575 448.515015,408.083557 
	C415.719757,408.053253 383.386749,408.095398 350.585266,408.083374 
	C314.397705,408.067566 278.678619,408.105988 242.497711,408.077332 
	C161.690582,408.006836 81.345291,408.003418 1.000000,408.000000 
	C1.000000,365.312439 1.000000,322.624878 1.468657,279.468628 
	C80.284760,278.999969 158.632202,279.001038 236.979645,278.993988 
	C238.972534,278.993805 240.965439,278.904144 243.423798,278.913696 
	C279.610199,278.934662 315.331146,278.898132 351.515686,278.925781 
	C384.311646,278.941467 416.644043,278.892914 449.440857,278.909851 
	C471.189423,278.926788 492.473602,278.878265 514.237061,278.896179 
	C549.824158,278.926880 584.931885,278.891174 620.504150,278.922546 
	C632.306580,278.941711 643.644470,278.893768 655.446594,278.906128 
	C676.987122,278.918304 698.063477,278.870178 719.595581,278.886505 
	C755.373535,278.914581 790.695740,278.878235 826.482422,278.915222 
	C859.288269,278.943451 891.629700,278.898315 924.436890,278.910278 
	C960.609070,278.927887 996.315613,278.888397 1032.484741,278.919128 
	C1119.298218,278.992859 1205.649170,278.996429 1292.000000,279.000000 
M765.874451,314.493195 
	C765.581604,314.393158 765.288818,314.293091 764.111877,314.077789 
	C762.198425,314.077789 760.284973,314.077789 758.696960,314.077789 
	C758.320679,314.938904 758.200195,315.086243 758.199707,315.233948 
	C758.151917,328.887054 758.177612,342.540833 758.050232,356.193146 
	C757.971985,364.580872 753.458374,369.048035 745.169189,369.090088 
	C734.012024,369.146667 722.854187,369.137207 711.696899,369.094788 
	C702.918457,369.061401 698.397278,364.600403 698.316345,355.673248 
	C698.207703,343.684113 698.287598,331.693268 698.286560,319.703156 
	C698.286438,317.943085 698.286560,316.183014 698.286560,314.442749 
	C695.354370,314.442749 693.140625,314.442749 690.807190,314.442749 
	C690.807190,329.810425 690.835876,344.787628 690.795898,359.764618 
	C690.773987,367.963593 701.037659,377.389221 708.960754,377.099121 
	C720.934509,376.660736 732.936584,377.011566 744.926636,376.999359 
	C757.535950,376.986542 765.643372,369.551880 765.913635,356.961639 
	C766.213562,342.983795 765.892944,328.992615 765.874451,314.493195 
M606.502686,314.145355 
	C606.391235,314.431610 606.279785,314.717896 606.028503,315.931549 
	C606.028503,336.191162 606.028503,356.450775 606.028503,376.835266 
	C608.707947,376.835266 610.846375,376.835266 613.492615,376.856079 
	C613.583191,376.566620 613.673767,376.277161 613.876770,375.058533 
	C613.876770,366.648651 613.876770,358.238739 613.876770,349.217407 
	C633.038635,349.217407 651.414734,349.217407 669.830200,349.217407 
	C669.830200,346.487061 669.830200,344.390350 669.830200,341.733124 
	C650.864502,341.733124 632.140930,341.733124 613.253662,341.733124 
	C613.253662,334.924591 613.253662,328.682190 613.253662,321.928802 
	C634.564270,321.928802 655.629028,321.928802 676.834839,321.928802 
	C676.834839,319.280426 676.834839,317.143311 676.864441,314.499146 
	C676.575745,314.404388 676.286987,314.309662 675.068359,314.095856 
	C652.380249,314.136566 629.692200,314.177277 606.502686,314.145355 
M336.026855,315.933380 
	C336.026855,336.176056 336.026855,356.418701 336.026855,376.663879 
	C338.624084,376.663879 340.673798,376.663879 343.207153,376.663879 
	C343.207153,368.773346 343.207153,361.211395 343.207153,353.289337 
	C344.832916,353.289337 345.969421,353.289520 347.105927,353.289307 
	C363.577209,353.286285 380.048981,353.359802 396.519531,353.250092 
	C405.692871,353.188995 410.987427,347.723389 411.001251,338.704559 
	C411.006348,335.377045 410.990784,332.049438 411.005157,328.721985 
	C411.042175,320.157684 405.512421,314.168640 396.893860,314.122589 
	C376.932068,314.015900 356.968872,314.166748 336.501648,314.141846 
	C336.388977,314.429810 336.276337,314.717804 336.026855,315.933380 
M939.054199,369.131409 
	C918.477966,369.131409 897.901672,369.131409 877.235291,369.131409 
	C877.235291,362.314758 877.235291,356.215790 877.235291,349.391846 
	C896.160706,349.391846 914.866028,349.391846 933.562927,349.391846 
	C933.562927,346.434479 933.562927,344.218719 933.562927,341.586060 
	C914.590942,341.586060 896.000916,341.586060 877.253784,341.586060 
	C877.253784,334.916840 877.253784,328.675140 877.253784,321.917175 
	C898.555176,321.917175 919.611755,321.917175 940.834595,321.917175 
	C940.834595,319.266907 940.834595,317.132996 940.868958,314.493561 
	C940.581116,314.396118 940.293335,314.298676 939.075195,314.076721 
	C916.381775,314.118225 893.688416,314.159729 870.466125,314.138000 
	C870.328491,314.425201 870.190857,314.712372 869.886475,315.924347 
	C869.886475,336.168396 869.886475,356.412445 869.886475,376.716553 
	C893.908264,376.716553 917.307922,376.716553 940.837463,376.716553 
	C940.837463,374.294800 940.837463,372.156677 940.854797,369.509277 
	C940.564209,369.419678 940.273682,369.330109 939.054199,369.131409 
M821.499878,314.064850 
	C817.500793,314.064850 813.501709,314.064789 809.502625,314.064819 
	C805.170410,314.064819 800.838135,314.060394 796.505920,314.065857 
	C784.209656,314.081360 779.032471,319.284027 779.031372,331.620209 
	C779.030212,344.610626 783.885681,349.394470 797.108948,349.404327 
	C809.439148,349.413544 821.769470,349.429871 834.099609,349.400146 
	C846.199768,349.370972 846.383667,350.511292 846.029053,361.426178 
	C845.829468,367.570618 844.560852,369.068695 838.380737,369.087006 
	C824.884277,369.126984 811.385803,368.975586 797.891846,369.163940 
	C792.657349,369.236969 787.734009,369.419342 786.672852,363.187195 
	C783.796692,363.187195 781.657410,363.187195 779.541138,363.187195 
	C778.860352,369.861053 785.202881,376.896820 792.102234,376.945770 
	C808.263916,377.060486 824.427490,377.064850 840.589172,376.954254 
	C846.766785,376.912018 851.323792,373.539642 853.054382,367.569458 
	C853.899963,364.652283 853.630981,361.426514 854.020386,358.359985 
	C855.549683,346.317596 846.636108,341.502472 837.543335,341.686798 
	C823.719177,341.967072 809.885010,341.785126 796.055237,341.748016 
	C788.957703,341.728973 786.967957,339.646851 786.944824,332.452301 
	C786.941101,331.285950 786.919922,330.118683 786.955872,328.953339 
	C787.091736,324.552826 789.365173,322.053436 793.768127,322.029907 
	C809.097107,321.947968 824.428650,321.885925 839.753967,322.137939 
	C841.730225,322.170471 845.039368,323.754364 845.395752,325.196655 
	C846.833069,331.013428 850.559082,328.689301 853.835999,328.653259 
	C854.272278,320.531555 848.684692,314.451050 840.493286,314.128204 
	C834.503906,313.892151 828.498169,314.070953 821.499878,314.064850 
M534.500488,314.050110 
	C528.219971,314.050110 521.939392,314.050110 515.509277,314.050110 
	C515.509277,335.306091 515.509277,356.010712 515.509277,377.003082 
	C533.842773,377.003082 551.820618,377.026978 569.798340,376.994965 
	C582.451660,376.972443 590.614990,368.867371 590.767517,356.152283 
	C590.853394,348.989349 590.940491,341.820251 590.747681,334.661469 
	C590.386475,321.249695 580.929443,313.806274 569.986450,314.005463 
	C558.494629,314.214661 546.995911,314.050903 534.500488,314.050110 
M497.612640,324.201233 
	C493.756042,317.670532 487.902496,314.255493 480.455383,314.116882 
	C468.304321,313.890747 456.141296,313.847900 443.992004,314.117279 
	C432.519653,314.371643 424.170807,323.673462 424.598999,333.813568 
	C424.949951,342.124695 424.871338,350.464569 424.683044,358.784912 
	C424.481354,367.696350 434.687866,377.465942 443.467407,377.122101 
	C456.102875,376.627228 468.772766,377.073029 481.426605,376.963562 
	C490.098969,376.888550 498.163727,370.216461 498.915131,361.754883 
	C499.748016,352.375397 499.843536,342.915497 499.879333,333.489166 
	C499.890198,330.628815 498.637604,327.763641 497.612640,324.201233 
z"/>
<path fill="#FFFFFF" opacity="1.000000" stroke="none" 
	d="
M1.000000,90.000000 
	C1.000000,60.341927 1.000000,30.683851 1.000000,1.050090 
	C431.333344,1.050090 861.666687,1.050090 1292.000000,1.050090 
	C1292.000000,30.425028 1292.000000,59.749874 1291.531372,89.537361 
	C1144.046509,90.000000 997.030273,89.999420 850.014038,90.006073 
	C848.019409,90.006165 846.024780,90.097557 843.765076,90.105492 
	C843.323242,90.091713 843.146484,90.118767 842.505005,90.078102 
	C784.841858,90.006912 727.643311,89.995598 670.444824,90.006950 
	C659.640564,90.009102 648.836243,90.101395 637.765625,90.103088 
	C637.321533,90.086487 637.143921,90.118896 636.503906,90.081024 
	C590.876953,90.007156 545.712341,89.988716 500.547760,90.006287 
	C478.051605,90.015038 455.555450,90.089745 432.707825,90.085320 
	C431.886230,90.069931 431.416138,90.103844 430.484680,90.073738 
	C287.015533,90.006477 144.007767,90.003235 1.000000,90.000000 
z"/>
<path fill="#000000" opacity="1.000000" stroke="none" 
	d="
M1032.021362,408.151550 
	C1033.847900,408.101044 1035.674561,408.006500 1037.501099,408.006348 
	C1122.021606,407.999084 1206.542236,408.000031 1291.531372,408.000000 
	C1292.000000,470.687561 1292.000000,533.375122 1292.000000,596.531372 
	C1142.984863,596.996582 993.969666,596.993164 844.600037,596.614868 
	C905.609619,534.878052 966.974670,473.517212 1028.331055,412.147675 
	C1029.611938,410.866486 1030.793457,409.485779 1032.021362,408.151550 
z"/>
<path fill="#000000" opacity="1.000000" stroke="none" 
	d="
M844.030151,90.146317 
	C846.024780,90.097557 848.019409,90.006165 850.014038,90.006073 
	C997.030273,89.999420 1144.046509,90.000000 1291.531372,90.000000 
	C1292.000000,152.687561 1292.000000,215.375122 1292.000000,278.531342 
	C1205.649170,278.996429 1119.298218,278.992859 1032.360352,278.619446 
	C970.168518,216.656143 908.562744,155.063660 846.967163,93.461029 
	C845.925293,92.419014 845.006470,91.253937 844.030151,90.146317 
z"/>
<path fill="#000000" opacity="1.000000" stroke="none" 
	d="
M1.000000,90.468658 
	C144.007767,90.003235 287.015533,90.006477 430.380798,90.381943 
	C369.377441,152.120056 308.015656,213.485031 246.662140,274.858246 
	C245.378708,276.142090 244.190796,277.521454 242.958344,278.856232 
	C240.965439,278.904144 238.972534,278.993805 236.979645,278.993988 
	C158.632202,279.001038 80.284760,278.999969 1.468657,279.000000 
	C1.000000,216.312439 1.000000,153.624878 1.000000,90.468658 
z"/>
<path fill="#000000" opacity="1.000000" stroke="none" 
	d="
M1.000000,408.468658 
	C81.345291,408.003418 161.690582,408.006836 242.632294,408.374542 
	C304.591980,470.101318 365.956451,531.462585 427.309967,592.834778 
	C428.587158,594.112366 429.737915,595.516357 430.947662,596.861389 
	C428.952911,596.907593 426.958130,596.994141 424.963379,596.994263 
	C283.954681,597.000549 142.945999,597.000000 1.468657,597.000000 
	C1.000000,534.312439 1.000000,471.624878 1.000000,408.468658 
z"/>
<path fill="#52BCB8" opacity="1.000000" stroke="none" 
	d="
M431.297852,596.913086 
	C429.737915,595.516357 428.587158,594.112366 427.309967,592.834778 
	C365.956451,531.462585 304.591980,470.101318 243.094131,408.441620 
	C278.678619,408.105988 314.397705,408.067566 350.690247,408.392273 
	C378.146393,435.628082 405.029083,462.500763 431.661774,489.123535 
	C448.443451,472.528381 464.755127,456.398041 481.393127,440.154541 
	C492.399139,429.417755 503.078827,418.794128 513.758484,408.170471 
	C549.206970,408.123871 584.655518,408.077271 620.436157,408.385895 
	C610.123352,419.494019 599.478333,430.246918 588.484436,440.986389 
	C587.441345,441.365997 586.616455,441.627991 586.071838,442.171021 
	C569.610413,458.583710 553.164490,475.011963 536.773499,491.494873 
	C535.922974,492.350098 535.578979,493.708954 534.691284,494.979614 
	C501.463196,528.049744 468.541321,560.971924 435.631256,593.905884 
	C434.709595,594.828186 433.913391,595.875854 433.058655,596.865051 
	C432.588470,596.898315 432.118256,596.931580 431.297852,596.913086 
z"/>
<path fill="#F6BE55" opacity="1.000000" stroke="none" 
	d="
M1031.558594,408.091583 
	C1030.793457,409.485779 1029.611938,410.866486 1028.331055,412.147675 
	C966.974670,473.517212 905.609619,534.878052 844.137634,596.546631 
	C843.853027,596.880615 843.676453,596.907837 843.126160,596.586670 
	C830.263428,583.754089 817.759460,571.284912 805.289001,558.782349 
	C783.760315,537.198242 762.252502,515.593445 740.808960,493.652649 
	C741.361511,492.636200 741.757690,491.881104 742.332886,491.304749 
	C758.452087,475.152679 774.580261,459.009583 790.747986,442.906067 
	C791.652039,442.005585 792.906433,441.456818 794.301941,440.920410 
	C810.687073,457.172058 826.768066,473.247681 843.015686,489.489838 
	C862.220825,470.282715 881.056519,451.481964 899.846802,432.635895 
	C907.937134,424.521545 915.932983,416.313019 923.971802,408.147278 
	C959.679749,408.108734 995.387756,408.070190 1031.558594,408.091583 
z"/>
<path fill="#D8466B" opacity="1.000000" stroke="none" 
	d="
M793.997803,440.744385 
	C792.906433,441.456818 791.652039,442.005585 790.747986,442.906067 
	C774.580261,459.009583 758.452087,475.152679 742.332886,491.304749 
	C741.757690,491.881104 741.361511,492.636200 740.536255,493.814026 
	C706.881714,527.621094 673.571411,560.920776 640.272034,594.231323 
	C639.462524,595.041138 638.774414,595.972351 638.029663,596.846924 
	C637.852051,596.880127 637.674438,596.913330 637.114868,596.595947 
	C607.454285,566.962646 578.182922,537.672607 548.889587,508.404510 
	C544.310669,503.829529 539.631775,499.354584 534.999146,494.833344 
	C535.578979,493.708954 535.922974,492.350098 536.773499,491.494873 
	C553.164490,475.011963 569.610413,458.583710 586.071838,442.171021 
	C586.616455,441.627991 587.441345,441.365997 588.633667,441.293091 
	C605.267273,457.531372 621.402710,473.449554 637.044373,488.880615 
	C654.007446,472.335144 670.494080,456.254333 687.285278,440.020325 
	C698.106873,429.304077 708.623901,418.740967 719.140991,408.177795 
	C754.455933,408.127869 789.770874,408.077942 825.416748,408.389771 
	C815.164307,419.415802 804.581055,430.080109 793.997803,440.744385 
z"/>
<path fill="#000000" opacity="1.000000" stroke="none" 
	d="
M638.493896,596.917969 
	C638.774414,595.972351 639.462524,595.041138 640.272034,594.231323 
	C673.571411,560.920776 706.881714,527.621094 740.463257,494.158691 
	C762.252502,515.593445 783.760315,537.198242 805.289001,558.782349 
	C817.759460,571.284912 830.263428,583.754089 842.861206,596.546143 
	C828.839783,596.902649 814.709534,596.989685 800.579285,596.993164 
	C746.705566,597.006409 692.831848,596.992676 638.493896,596.917969 
z"/>
<path fill="#000000" opacity="1.000000" stroke="none" 
	d="
M534.691284,494.979614 
	C539.631775,499.354584 544.310669,503.829529 548.889587,508.404510 
	C578.182922,537.672607 607.454285,566.962646 636.848267,596.547668 
	C624.467468,596.899902 611.971375,596.990234 599.475281,596.993103 
	C544.310364,597.005920 489.145386,596.993591 433.519562,596.927734 
	C433.913391,595.875854 434.709595,594.828186 435.631256,593.905884 
	C468.541321,560.971924 501.463196,528.049744 534.691284,494.979614 
z"/>
<path fill="#52BCB8" opacity="1.000000" stroke="none" 
	d="
M243.423798,278.913696 
	C244.190796,277.521454 245.378708,276.142090 246.662140,274.858246 
	C308.015656,213.485031 369.377441,152.120056 430.842163,90.445969 
	C431.416138,90.103844 431.886230,90.069931 432.808044,90.393906 
	C462.070465,119.565117 490.873199,148.386414 519.699341,177.184250 
	C524.748901,182.228867 529.896790,187.175018 535.004822,192.512970 
	C535.398804,193.562592 535.650330,194.402466 536.195618,194.949417 
	C552.726013,211.530350 569.275024,228.092728 585.874634,244.604263 
	C586.603027,245.328812 587.835571,245.546463 588.980225,246.308853 
	C599.431274,257.363495 609.735413,268.109467 620.039612,278.855469 
	C584.931885,278.891174 549.824158,278.926880 514.100586,278.618103 
	C506.092346,270.868713 498.745667,263.417419 491.286743,256.080261 
	C487.997620,252.844818 484.480438,249.841202 480.894958,246.457489 
	C464.604584,229.936356 448.486084,213.690048 432.195312,197.270096 
	C409.454468,220.022705 387.344604,242.120529 365.267426,264.251007 
	C360.468811,269.061188 355.787445,273.988312 351.052063,278.861572 
	C315.331146,278.898132 279.610199,278.934662 243.423798,278.913696 
z"/>
<path fill="#F6BE55" opacity="1.000000" stroke="none" 
	d="
M843.765137,90.105476 
	C845.006470,91.253937 845.925293,92.419014 846.967163,93.461029 
	C908.562744,155.063660 970.168518,216.656143 1031.897705,278.549255 
	C996.315613,278.888397 960.609070,278.927887 924.327148,278.602478 
	C896.860291,251.356705 869.968811,224.475815 842.374634,196.892532 
	C825.909302,213.693436 809.954102,229.973740 793.654907,246.180023 
	C792.637390,245.629639 791.878540,245.238815 791.302917,244.664398 
	C775.150024,228.545120 759.006409,212.416382 742.902161,196.248398 
	C742.001648,195.344360 741.451050,194.091675 740.916077,192.698273 
	C773.957886,159.536072 806.823120,126.678848 839.676270,93.809494 
	C840.835510,92.649681 841.874634,91.369774 842.969727,90.145828 
	C843.146484,90.118767 843.323242,90.091713 843.765137,90.105476 
z"/>
<path fill="#D8466B" opacity="1.000000" stroke="none" 
	d="
M740.737610,193.001282 
	C741.451050,194.091675 742.001648,195.344360 742.902161,196.248398 
	C759.006409,212.416382 775.150024,228.545120 791.302917,244.664398 
	C791.878540,245.238815 792.637390,245.629639 793.813599,246.455475 
	C804.883545,257.483887 815.450745,268.162872 826.017944,278.841858 
	C790.695740,278.878235 755.373535,278.914581 719.424683,278.601562 
	C708.192261,267.776978 697.586487,257.301727 686.849731,246.528442 
	C670.525635,230.041733 654.332581,213.853073 636.768250,196.293457 
	C620.505981,213.156754 604.669617,229.578445 588.833252,246.000168 
	C587.835571,245.546463 586.603027,245.328812 585.874634,244.604263 
	C569.275024,228.092728 552.726013,211.530350 536.195618,194.949417 
	C535.650330,194.402466 535.398804,193.562592 535.311157,192.364380 
	C568.653992,158.837479 601.697449,125.806862 634.729858,92.765167 
	C635.538147,91.956696 636.223511,91.025330 636.966248,90.151306 
	C637.143921,90.118896 637.321533,90.086487 637.884766,90.405685 
	C649.798950,102.290215 661.313477,113.837234 672.859070,125.353058 
	C695.476074,147.911636 718.110413,170.452881 740.737610,193.001282 
z"/>
<path fill="#000000" opacity="1.000000" stroke="none" 
	d="
M351.515686,278.925781 
	C355.787445,273.988312 360.468811,269.061188 365.267426,264.251007 
	C387.344604,242.120529 409.454468,220.022705 432.195312,197.270096 
	C448.486084,213.690048 464.604584,229.936356 480.588074,246.629395 
	C469.960846,257.665558 459.468628,268.254944 448.976410,278.844360 
	C416.644043,278.892914 384.311646,278.941467 351.515686,278.925781 
z"/>
<path fill="#000000" opacity="1.000000" stroke="none" 
	d="
M794.301941,440.920441 
	C804.581055,430.080109 815.164307,419.415802 825.882385,408.455017 
	C858.358398,408.109192 890.699585,408.059875 923.506287,408.078918 
	C915.932983,416.313019 907.937134,424.521545 899.846802,432.635895 
	C881.056519,451.481964 862.220825,470.282715 843.015686,489.489838 
	C826.768066,473.247681 810.687073,457.172058 794.301941,440.920441 
z"/>
<path fill="#000000" opacity="1.000000" stroke="none" 
	d="
M481.066772,440.267639 
	C464.755127,456.398041 448.443451,472.528381 431.661774,489.123535 
	C405.029083,462.500763 378.146393,435.628082 351.158722,408.446472 
	C383.386749,408.095398 415.719757,408.053253 448.650726,408.380127 
	C459.854736,419.255310 470.460754,429.761475 481.066772,440.267639 
z"/>
<path fill="#000000" opacity="1.000000" stroke="none" 
	d="
M826.482422,278.915222 
	C815.450745,268.162872 804.883545,257.483887 794.157654,246.529480 
	C809.954102,229.973740 825.909302,213.693436 842.374634,196.892532 
	C869.968811,224.475815 896.860291,251.356705 923.861450,278.545380 
	C891.629700,278.898315 859.288269,278.943451 826.482422,278.915222 
z"/>
<path fill="#000000" opacity="1.000000" stroke="none" 
	d="
M588.980164,246.308807 
	C604.669617,229.578445 620.505981,213.156754 636.768250,196.293457 
	C654.332581,213.853073 670.525635,230.041733 686.539062,246.680267 
	C675.900452,257.702026 665.441406,268.273926 654.982361,278.845856 
	C643.644470,278.893768 632.306580,278.941711 620.504150,278.922546 
	C609.735413,268.109467 599.431274,257.363495 588.980164,246.308807 
z"/>
<path fill="#000000" opacity="1.000000" stroke="none" 
	d="
M686.980835,440.173584 
	C670.494080,456.254333 654.007446,472.335144 637.044373,488.880615 
	C621.402710,473.449554 605.267273,457.531372 588.982544,441.306519 
	C599.478333,430.246918 610.123352,419.494019 620.903320,408.443176 
	C632.044678,408.100464 643.051025,408.055725 654.645386,408.383545 
	C665.815857,419.228638 676.398376,429.701141 686.980835,440.173584 
z"/>
<path fill="#6B6F6F" opacity="1.000000" stroke="none" 
	d="
M821.999817,314.064850 
	C828.498169,314.070953 834.503906,313.892151 840.493286,314.128204 
	C848.684692,314.451050 854.272278,320.531555 853.835999,328.653259 
	C850.559082,328.689301 846.833069,331.013428 845.395752,325.196655 
	C845.039368,323.754364 841.730225,322.170471 839.753967,322.137939 
	C824.428650,321.885925 809.097107,321.947968 793.768127,322.029907 
	C789.365173,322.053436 787.091736,324.552826 786.955872,328.953339 
	C786.919922,330.118683 786.941101,331.285950 786.944824,332.452301 
	C786.967957,339.646851 788.957703,341.728973 796.055237,341.748016 
	C809.885010,341.785126 823.719177,341.967072 837.543335,341.686798 
	C846.636108,341.502472 855.549683,346.317596 854.020386,358.359985 
	C853.630981,361.426514 853.899963,364.652283 853.054382,367.569458 
	C851.323792,373.539642 846.766785,376.912018 840.589172,376.954254 
	C824.427490,377.064850 808.263916,377.060486 792.102234,376.945770 
	C785.202881,376.896820 778.860352,369.861053 779.541138,363.187195 
	C781.657410,363.187195 783.796692,363.187195 786.672852,363.187195 
	C787.734009,369.419342 792.657349,369.236969 797.891846,369.163940 
	C811.385803,368.975586 824.884277,369.126984 838.380737,369.087006 
	C844.560852,369.068695 845.829468,367.570618 846.029053,361.426178 
	C846.383667,350.511292 846.199768,349.370972 834.099609,349.400146 
	C821.769470,349.429871 809.439148,349.413544 797.108948,349.404327 
	C783.885681,349.394470 779.030212,344.610626 779.031372,331.620209 
	C779.032471,319.284027 784.209656,314.081360 796.505920,314.065857 
	C800.838135,314.060394 805.170410,314.064819 809.502625,314.064819 
	C813.501709,314.064789 817.500793,314.064850 821.999817,314.064850 
z"/>
<path fill="#6A6E6E" opacity="1.000000" stroke="none" 
	d="
M940.834595,314.999115 
	C940.834595,317.132996 940.834595,319.266907 940.834595,321.917175 
	C919.611755,321.917175 898.555176,321.917175 877.253784,321.917175 
	C877.253784,328.675140 877.253784,334.916840 877.253784,341.586060 
	C896.000916,341.586060 914.590942,341.586060 933.562927,341.586060 
	C933.562927,344.218719 933.562927,346.434479 933.562927,349.391846 
	C914.866028,349.391846 896.160706,349.391846 877.235291,349.391846 
	C877.235291,356.215790 877.235291,362.314758 877.235291,369.131409 
	C897.901672,369.131409 918.477966,369.131409 939.617371,369.358002 
	C940.362427,369.785400 940.581421,369.930054 940.837463,370.018585 
	C940.837463,372.156677 940.837463,374.294800 940.837463,376.716553 
	C917.307922,376.716553 893.908264,376.716553 869.886475,376.716553 
	C869.886475,356.412445 869.886475,336.168396 870.165466,315.379333 
	C870.693726,314.680511 870.877258,314.469482 870.994995,314.201233 
	C893.688416,314.159729 916.381775,314.118225 939.637207,314.310699 
	C940.369324,314.754333 940.581177,314.905792 940.834595,314.999115 
z"/>
<path fill="#6A6E6E" opacity="1.000000" stroke="none" 
	d="
M535.000366,314.050110 
	C546.995911,314.050903 558.494629,314.214661 569.986450,314.005463 
	C580.929443,313.806274 590.386475,321.249695 590.747681,334.661469 
	C590.940491,341.820251 590.853394,348.989349 590.767517,356.152283 
	C590.614990,368.867371 582.451660,376.972443 569.798340,376.994965 
	C551.820618,377.026978 533.842773,377.003082 515.509277,377.003082 
	C515.509277,356.010712 515.509277,335.306091 515.509277,314.050110 
	C521.939392,314.050110 528.219971,314.050110 535.000366,314.050110 
M523.034058,351.498718 
	C523.034058,357.260559 523.034058,363.022369 523.034058,369.105286 
	C539.119263,369.105286 554.562927,369.145386 570.006226,369.089050 
	C578.221558,369.059082 582.797913,364.416626 582.897278,356.064209 
	C582.980408,349.079468 582.977722,342.092163 582.897400,335.107330 
	C582.799377,326.589264 578.151123,322.006317 569.534668,321.973145 
	C555.230713,321.918091 540.926392,321.950165 526.622192,321.972961 
	C525.520630,321.974731 524.419495,322.192719 523.034058,322.340515 
	C523.034058,331.920349 523.034058,341.209839 523.034058,351.498718 
z"/>
<path fill="#6B6F6F" opacity="1.000000" stroke="none" 
	d="
M497.788177,324.550964 
	C498.637604,327.763641 499.890198,330.628815 499.879333,333.489166 
	C499.843536,342.915497 499.748016,352.375397 498.915131,361.754883 
	C498.163727,370.216461 490.098969,376.888550 481.426605,376.963562 
	C468.772766,377.073029 456.102875,376.627228 443.467407,377.122101 
	C434.687866,377.465942 424.481354,367.696350 424.683044,358.784912 
	C424.871338,350.464569 424.949951,342.124695 424.598999,333.813568 
	C424.170807,323.673462 432.519653,314.371643 443.992004,314.117279 
	C456.141296,313.847900 468.304321,313.890747 480.455383,314.116882 
	C487.902496,314.255493 493.756042,317.670532 497.788177,324.550964 
M433.610260,362.515656 
	C436.323059,364.671387 438.946106,368.542297 441.764069,368.689819 
	C454.883453,369.376465 468.064240,369.294617 481.206879,368.920044 
	C485.946381,368.784973 490.642548,366.464508 490.978912,360.894226 
	C491.574707,351.028107 492.148529,341.068054 491.408173,331.247101 
	C490.932800,324.941284 486.444427,322.099335 479.904266,322.012726 
	C467.917114,321.854004 455.924683,321.872223 443.937378,322.033356 
	C437.865326,322.114960 432.979889,325.970490 432.749908,331.974609 
	C432.369659,341.902405 433.017151,351.869598 433.610260,362.515656 
z"/>
<path fill="#6A6E6E" opacity="1.000000" stroke="none" 
	d="
M337.006256,314.213196 
	C356.968872,314.166748 376.932068,314.015900 396.893860,314.122589 
	C405.512421,314.168640 411.042175,320.157684 411.005157,328.721985 
	C410.990784,332.049438 411.006348,335.377045 411.001251,338.704559 
	C410.987427,347.723389 405.692871,353.188995 396.519531,353.250092 
	C380.048981,353.359802 363.577209,353.286285 347.105927,353.289307 
	C345.969421,353.289520 344.832916,353.289337 343.207153,353.289337 
	C343.207153,361.211395 343.207153,368.773346 343.207153,376.663879 
	C340.673798,376.663879 338.624084,376.663879 336.026855,376.663879 
	C336.026855,356.418701 336.026855,336.176056 336.270996,315.378174 
	C336.741364,314.670074 336.905060,314.466827 337.006256,314.213196 
M390.422852,321.983582 
	C374.698883,321.983582 358.974915,321.983582 343.377625,321.983582 
	C343.377625,330.239624 343.377625,337.784424 343.377625,345.627106 
	C361.357910,345.627106 378.964478,345.710968 396.569122,345.565643 
	C400.747589,345.531189 403.425293,343.495209 403.051331,338.653076 
	C402.796021,335.347382 402.857422,331.994965 403.063416,328.681274 
	C403.344482,324.160217 400.937317,322.331757 396.879669,322.020660 
	C395.060577,321.881195 393.222595,321.988312 390.422852,321.983582 
z"/>
<path fill="#696D6D" opacity="1.000000" stroke="none" 
	d="
M676.834839,315.006165 
	C676.834839,317.143311 676.834839,319.280426 676.834839,321.928802 
	C655.629028,321.928802 634.564270,321.928802 613.253662,321.928802 
	C613.253662,328.682190 613.253662,334.924591 613.253662,341.733124 
	C632.140930,341.733124 650.864502,341.733124 669.830200,341.733124 
	C669.830200,344.390350 669.830200,346.487061 669.830200,349.217407 
	C651.414734,349.217407 633.038635,349.217407 613.876770,349.217407 
	C613.876770,358.238739 613.876770,366.648651 613.649170,375.621338 
	C613.219727,376.363464 613.074158,376.580505 612.984863,376.835266 
	C610.846375,376.835266 608.707947,376.835266 606.028503,376.835266 
	C606.028503,356.450775 606.028503,336.191162 606.273193,315.377808 
	C606.742615,314.672241 606.904663,314.470215 607.004089,314.217987 
	C629.692200,314.177277 652.380249,314.136566 675.631470,314.326477 
	C676.368469,314.763153 676.581909,314.912842 676.834839,315.006165 
z"/>
<path fill="#6A6E6E" opacity="1.000000" stroke="none" 
	d="
M765.842529,315.007263 
	C765.892944,328.992615 766.213562,342.983795 765.913635,356.961639 
	C765.643372,369.551880 757.535950,376.986542 744.926636,376.999359 
	C732.936584,377.011566 720.934509,376.660736 708.960754,377.099121 
	C701.037659,377.389221 690.773987,367.963593 690.795898,359.764618 
	C690.835876,344.787628 690.807190,329.810425 690.807190,314.442749 
	C693.140625,314.442749 695.354370,314.442749 698.286560,314.442749 
	C698.286560,316.183014 698.286438,317.943085 698.286560,319.703156 
	C698.287598,331.693268 698.207703,343.684113 698.316345,355.673248 
	C698.397278,364.600403 702.918457,369.061401 711.696899,369.094788 
	C722.854187,369.137207 734.012024,369.146667 745.169189,369.090088 
	C753.458374,369.048035 757.971985,364.580872 758.050232,356.193146 
	C758.177612,342.540833 758.151917,328.887054 758.199707,315.233948 
	C758.200195,315.086243 758.320679,314.938904 758.696960,314.077789 
	C760.284973,314.077789 762.198425,314.077789 764.654175,314.309448 
	C765.371399,314.752411 765.586792,314.907806 765.842529,315.007263 
z"/>
<path fill="#D7476C" opacity="1.000000" stroke="none" 
	d="
M449.440857,278.909851 
	C459.468628,268.254944 469.960846,257.665558 480.759949,246.904236 
	C484.480438,249.841202 487.997620,252.844818 491.286743,256.080261 
	C498.745667,263.417419 506.092346,270.868713 513.621216,278.551666 
	C492.473602,278.878265 471.189423,278.926788 449.440857,278.909851 
z"/>
<path fill="#D7476C" opacity="1.000000" stroke="none" 
	d="
M481.393127,440.154541 
	C470.460754,429.761475 459.854736,419.255310 449.112976,408.452576 
	C470.273621,408.120575 491.570007,408.085144 513.312439,408.110107 
	C503.078827,418.794128 492.399139,429.417755 481.393127,440.154541 
z"/>
<path fill="#F6BE55" opacity="1.000000" stroke="none" 
	d="
M687.285400,440.020416 
	C676.398376,429.701141 665.815857,419.228638 655.108032,408.455261 
	C676.050171,408.117462 697.117554,408.080505 718.662964,408.110687 
	C708.623901,418.740967 698.106873,429.304077 687.285400,440.020416 
z"/>
<path fill="#F6BE55" opacity="1.000000" stroke="none" 
	d="
M655.446594,278.906128 
	C665.441406,268.273926 675.900452,257.702026 686.670105,246.978302 
	C697.586487,257.301727 708.192261,267.776978 718.968872,278.537109 
	C698.063477,278.870178 676.987122,278.918304 655.446594,278.906128 
z"/>
<path fill="#7E8181" opacity="1.000000" stroke="none" 
	d="
M765.858521,314.750244 
	C765.586792,314.907806 765.371399,314.752411 765.096191,314.367065 
	C765.288818,314.293091 765.581604,314.393158 765.858521,314.750244 
z"/>
<path fill="#7C8080" opacity="1.000000" stroke="none" 
	d="
M676.849609,314.752655 
	C676.581909,314.912842 676.368469,314.763153 676.096436,314.386017 
	C676.286987,314.309662 676.575745,314.404388 676.849609,314.752655 
z"/>
<path fill="#838686" opacity="1.000000" stroke="none" 
	d="
M613.238770,376.845673 
	C613.074158,376.580505 613.219727,376.363464 613.592896,376.085938 
	C613.673767,376.277161 613.583191,376.566620 613.238770,376.845673 
z"/>
<path fill="#7C8080" opacity="1.000000" stroke="none" 
	d="
M606.753418,314.181671 
	C606.904663,314.470215 606.742615,314.672241 606.343140,314.914124 
	C606.279785,314.717896 606.391235,314.431610 606.753418,314.181671 
z"/>
<path fill="#858888" opacity="1.000000" stroke="none" 
	d="
M940.846130,369.763916 
	C940.581421,369.930054 940.362427,369.785400 940.081787,369.412537 
	C940.273682,369.330109 940.564209,369.419678 940.846130,369.763916 
z"/>
<path fill="#787B7B" opacity="1.000000" stroke="none" 
	d="
M870.730591,314.169617 
	C870.877258,314.469482 870.693726,314.680511 870.248840,314.916931 
	C870.190857,314.712372 870.328491,314.425201 870.730591,314.169617 
z"/>
<path fill="#7E8181" opacity="1.000000" stroke="none" 
	d="
M336.753967,314.177521 
	C336.905060,314.466827 336.741364,314.670074 336.339417,314.914368 
	C336.276337,314.717804 336.388977,314.429810 336.753967,314.177521 
z"/>
<path fill="#787B7B" opacity="1.000000" stroke="none" 
	d="
M940.851807,314.746338 
	C940.581177,314.905792 940.369324,314.754333 940.102295,314.372925 
	C940.293335,314.298676 940.581116,314.396118 940.851807,314.746338 
z"/>
<path fill="#000000" opacity="1.000000" stroke="none" 
	d="
M740.916077,192.698273 
	C718.110413,170.452881 695.476074,147.911636 672.859070,125.353058 
	C661.313477,113.837234 649.798950,102.290215 638.151184,90.454689 
	C648.836243,90.101395 659.640564,90.009102 670.444824,90.006950 
	C727.643311,89.995598 784.841858,90.006912 842.505005,90.078110 
	C841.874634,91.369774 840.835510,92.649681 839.676270,93.809494 
	C806.823120,126.678848 773.957886,159.536072 740.916077,192.698273 
z"/>
<path fill="#000000" opacity="1.000000" stroke="none" 
	d="
M636.503906,90.081024 
	C636.223511,91.025330 635.538147,91.956696 634.729858,92.765167 
	C601.697449,125.806862 568.653992,158.837479 535.305603,192.018082 
	C529.896790,187.175018 524.748901,182.228867 519.699341,177.184250 
	C490.873199,148.386414 462.070465,119.565117 433.159546,90.443207 
	C455.555450,90.089745 478.051605,90.015038 500.547760,90.006287 
	C545.712341,89.988716 590.876953,90.007156 636.503906,90.081024 
z"/>
<path fill="#FFFFFF" opacity="1.000000" stroke="none" 
	d="
M523.034058,350.999023 
	C523.034058,341.209839 523.034058,331.920349 523.034058,322.340515 
	C524.419495,322.192719 525.520630,321.974731 526.622192,321.972961 
	C540.926392,321.950165 555.230713,321.918091 569.534668,321.973145 
	C578.151123,322.006317 582.799377,326.589264 582.897400,335.107330 
	C582.977722,342.092163 582.980408,349.079468 582.897278,356.064209 
	C582.797913,364.416626 578.221558,369.059082 570.006226,369.089050 
	C554.562927,369.145386 539.119263,369.105286 523.034058,369.105286 
	C523.034058,363.022369 523.034058,357.260559 523.034058,350.999023 
z"/>
<path fill="#FFFFFF" opacity="1.000000" stroke="none" 
	d="
M433.420929,362.167908 
	C433.017151,351.869598 432.369659,341.902405 432.749908,331.974609 
	C432.979889,325.970490 437.865326,322.114960 443.937378,322.033356 
	C455.924683,321.872223 467.917114,321.854004 479.904266,322.012726 
	C486.444427,322.099335 490.932800,324.941284 491.408173,331.247101 
	C492.148529,341.068054 491.574707,351.028107 490.978912,360.894226 
	C490.642548,366.464508 485.946381,368.784973 481.206879,368.920044 
	C468.064240,369.294617 454.883453,369.376465 441.764069,368.689819 
	C438.946106,368.542297 436.323059,364.671387 433.420929,362.167908 
z"/>
<path fill="#FFFFFF" opacity="1.000000" stroke="none" 
	d="
M390.908020,321.983582 
	C393.222595,321.988312 395.060577,321.881195 396.879669,322.020660 
	C400.937317,322.331757 403.344482,324.160217 403.063416,328.681274 
	C402.857422,331.994965 402.796021,335.347382 403.051331,338.653076 
	C403.425293,343.495209 400.747589,345.531189 396.569122,345.565643 
	C378.964478,345.710968 361.357910,345.627106 343.377625,345.627106 
	C343.377625,337.784424 343.377625,330.239624 343.377625,321.983582 
	C358.974915,321.983582 374.698883,321.983582 390.908020,321.983582 
z"/>
</svg>